<mxfile host="Electron" modified="2023-11-10T02:39:17.675Z" agent="Mozilla/5.0 (Windows NT 10.0; Win64; x64) AppleWebKit/537.36 (KHTML, like Gecko) draw.io/22.0.2 Chrome/114.0.5735.289 Electron/25.8.4 Safari/537.36" etag="ITZYsbZVAbxDdCSJbg8S" version="22.0.2" type="device">
  <diagram id="C5RBs43oDa-KdzZeNtuy" name="Page-1">
    <mxGraphModel dx="513" dy="949" grid="1" gridSize="10" guides="1" tooltips="1" connect="1" arrows="1" fold="1" page="1" pageScale="1" pageWidth="827" pageHeight="1169" math="0" shadow="0">
      <root>
        <mxCell id="WIyWlLk6GJQsqaUBKTNV-0" />
        <mxCell id="WIyWlLk6GJQsqaUBKTNV-1" parent="WIyWlLk6GJQsqaUBKTNV-0" />
        <mxCell id="LB6PAiOCscrGqotTrJ5A-24" value="" style="edgeStyle=orthogonalEdgeStyle;rounded=0;orthogonalLoop=1;jettySize=auto;html=1;" edge="1" parent="WIyWlLk6GJQsqaUBKTNV-1" source="LB6PAiOCscrGqotTrJ5A-1" target="LB6PAiOCscrGqotTrJ5A-23">
          <mxGeometry relative="1" as="geometry" />
        </mxCell>
        <mxCell id="LB6PAiOCscrGqotTrJ5A-1" value="Start" style="strokeWidth=2;html=1;shape=mxgraph.flowchart.start_1;whiteSpace=wrap;" vertex="1" parent="WIyWlLk6GJQsqaUBKTNV-1">
          <mxGeometry x="74" y="110" width="160" height="60" as="geometry" />
        </mxCell>
        <mxCell id="LB6PAiOCscrGqotTrJ5A-35" value="" style="edgeStyle=orthogonalEdgeStyle;rounded=0;orthogonalLoop=1;jettySize=auto;html=1;" edge="1" parent="WIyWlLk6GJQsqaUBKTNV-1" source="LB6PAiOCscrGqotTrJ5A-9" target="LB6PAiOCscrGqotTrJ5A-14">
          <mxGeometry relative="1" as="geometry" />
        </mxCell>
        <mxCell id="LB6PAiOCscrGqotTrJ5A-9" value="gcd(int a, intb)" style="strokeWidth=2;html=1;shape=mxgraph.flowchart.start_1;whiteSpace=wrap;" vertex="1" parent="WIyWlLk6GJQsqaUBKTNV-1">
          <mxGeometry x="316" y="20" width="160" height="60" as="geometry" />
        </mxCell>
        <mxCell id="LB6PAiOCscrGqotTrJ5A-39" value="True" style="edgeStyle=orthogonalEdgeStyle;rounded=0;orthogonalLoop=1;jettySize=auto;html=1;exitX=0.5;exitY=1;exitDx=0;exitDy=0;exitPerimeter=0;entryX=0.5;entryY=0;entryDx=0;entryDy=0;" edge="1" parent="WIyWlLk6GJQsqaUBKTNV-1" source="LB6PAiOCscrGqotTrJ5A-14" target="LB6PAiOCscrGqotTrJ5A-17">
          <mxGeometry relative="1" as="geometry" />
        </mxCell>
        <mxCell id="LB6PAiOCscrGqotTrJ5A-14" value="b != 0" style="strokeWidth=2;html=1;shape=mxgraph.flowchart.decision;whiteSpace=wrap;" vertex="1" parent="WIyWlLk6GJQsqaUBKTNV-1">
          <mxGeometry x="353" y="110" width="86" height="70" as="geometry" />
        </mxCell>
        <mxCell id="LB6PAiOCscrGqotTrJ5A-17" value="&lt;div&gt;int temp = b&lt;/div&gt;&lt;div&gt;b = a % b;&lt;/div&gt;&lt;div&gt;a = temp;&lt;/div&gt;" style="rounded=1;whiteSpace=wrap;html=1;absoluteArcSize=1;arcSize=14;strokeWidth=2;" vertex="1" parent="WIyWlLk6GJQsqaUBKTNV-1">
          <mxGeometry x="343" y="225" width="106" height="80" as="geometry" />
        </mxCell>
        <mxCell id="LB6PAiOCscrGqotTrJ5A-19" value="End" style="strokeWidth=2;html=1;shape=mxgraph.flowchart.terminator;whiteSpace=wrap;" vertex="1" parent="WIyWlLk6GJQsqaUBKTNV-1">
          <mxGeometry x="104" y="490" width="100" height="60" as="geometry" />
        </mxCell>
        <mxCell id="LB6PAiOCscrGqotTrJ5A-20" value="return a" style="strokeWidth=2;html=1;shape=mxgraph.flowchart.terminator;whiteSpace=wrap;" vertex="1" parent="WIyWlLk6GJQsqaUBKTNV-1">
          <mxGeometry x="346" y="373" width="100" height="60" as="geometry" />
        </mxCell>
        <mxCell id="LB6PAiOCscrGqotTrJ5A-28" value="" style="edgeStyle=orthogonalEdgeStyle;rounded=0;orthogonalLoop=1;jettySize=auto;html=1;" edge="1" parent="WIyWlLk6GJQsqaUBKTNV-1" source="LB6PAiOCscrGqotTrJ5A-23" target="LB6PAiOCscrGqotTrJ5A-27">
          <mxGeometry relative="1" as="geometry" />
        </mxCell>
        <mxCell id="LB6PAiOCscrGqotTrJ5A-23" value="Input:&lt;br&gt;a, b" style="shape=parallelogram;html=1;strokeWidth=2;perimeter=parallelogramPerimeter;whiteSpace=wrap;rounded=1;arcSize=12;size=0.23;" vertex="1" parent="WIyWlLk6GJQsqaUBKTNV-1">
          <mxGeometry x="104" y="210" width="100" height="60" as="geometry" />
        </mxCell>
        <mxCell id="LB6PAiOCscrGqotTrJ5A-33" value="" style="edgeStyle=orthogonalEdgeStyle;rounded=0;orthogonalLoop=1;jettySize=auto;html=1;" edge="1" parent="WIyWlLk6GJQsqaUBKTNV-1" source="LB6PAiOCscrGqotTrJ5A-27" target="LB6PAiOCscrGqotTrJ5A-32">
          <mxGeometry relative="1" as="geometry" />
        </mxCell>
        <mxCell id="LB6PAiOCscrGqotTrJ5A-27" value="gcd(a,b)" style="verticalLabelPosition=middle;verticalAlign=middle;html=1;shape=process;whiteSpace=wrap;rounded=1;size=0.14;arcSize=6;labelPosition=center;align=center;" vertex="1" parent="WIyWlLk6GJQsqaUBKTNV-1">
          <mxGeometry x="104" y="310" width="100" height="60" as="geometry" />
        </mxCell>
        <mxCell id="LB6PAiOCscrGqotTrJ5A-34" value="" style="edgeStyle=orthogonalEdgeStyle;rounded=0;orthogonalLoop=1;jettySize=auto;html=1;" edge="1" parent="WIyWlLk6GJQsqaUBKTNV-1" source="LB6PAiOCscrGqotTrJ5A-32" target="LB6PAiOCscrGqotTrJ5A-19">
          <mxGeometry relative="1" as="geometry" />
        </mxCell>
        <mxCell id="LB6PAiOCscrGqotTrJ5A-32" value="Output:&lt;br style=&quot;border-color: var(--border-color);&quot;&gt;return of gcd(a, b)" style="shape=parallelogram;html=1;strokeWidth=2;perimeter=parallelogramPerimeter;whiteSpace=wrap;rounded=1;arcSize=12;size=0.23;" vertex="1" parent="WIyWlLk6GJQsqaUBKTNV-1">
          <mxGeometry x="79" y="400" width="150" height="60" as="geometry" />
        </mxCell>
        <mxCell id="LB6PAiOCscrGqotTrJ5A-38" value="False" style="edgeStyle=orthogonalEdgeStyle;rounded=0;orthogonalLoop=1;jettySize=auto;html=1;exitX=0;exitY=0.5;exitDx=0;exitDy=0;exitPerimeter=0;entryX=0.5;entryY=0;entryDx=0;entryDy=0;entryPerimeter=0;labelPosition=center;verticalLabelPosition=middle;align=center;verticalAlign=middle;" edge="1" parent="WIyWlLk6GJQsqaUBKTNV-1" source="LB6PAiOCscrGqotTrJ5A-14" target="LB6PAiOCscrGqotTrJ5A-20">
          <mxGeometry relative="1" as="geometry">
            <Array as="points">
              <mxPoint x="290" y="145" />
              <mxPoint x="290" y="350" />
              <mxPoint x="396" y="350" />
            </Array>
          </mxGeometry>
        </mxCell>
        <mxCell id="LB6PAiOCscrGqotTrJ5A-41" style="edgeStyle=orthogonalEdgeStyle;rounded=0;orthogonalLoop=1;jettySize=auto;html=1;exitX=1;exitY=0.5;exitDx=0;exitDy=0;entryX=1;entryY=0.5;entryDx=0;entryDy=0;entryPerimeter=0;" edge="1" parent="WIyWlLk6GJQsqaUBKTNV-1" source="LB6PAiOCscrGqotTrJ5A-17" target="LB6PAiOCscrGqotTrJ5A-14">
          <mxGeometry relative="1" as="geometry" />
        </mxCell>
      </root>
    </mxGraphModel>
  </diagram>
</mxfile>
